<?xml version="1.0" encoding="utf-8"?>
<!-- Created by sK1 2.0rc5 (https://sk1project.net/) -->
<svg xmlns="http://www.w3.org/2000/svg" height="100.0px" width="100.0px" version="1.1" xmlns:xlink="http://www.w3.org/1999/xlink" id="3e80d92a-6faf-11ea-bfe2-b42e99a10389">

<g>
	<g>
		<g>
			<g>
				<path style="fill:#525552;" d="M 85.061,71.385 C 90.821,71.385 95.5,66.705 95.5,60.945 95.5,55.456 91.27,50.956 85.96,50.506 85.33,41.236 77.68,33.856 68.231,33.856 63.46,33.856 59.14,35.746 55.99,38.716 54.461,33.496 49.601,29.716 43.841,29.716 40.151,29.716 36.821,31.336 34.481,33.856 33.401,33.136 32.051,32.686 30.701,32.686 27.191,32.686 24.311,35.386 24.041,38.806 19.001,38.896 15.041,43.036 15.041,48.076 15.041,48.256 15.041,48.347 15.041,48.526 12.431,49.426 10.631,51.857 10.631,54.646 10.631,54.827 10.631,55.006 10.631,55.096 7.57,56.444 5.5,59.415 5.5,62.925 5.5,67.606 9.28,71.385 13.96,71.385 18.64,71.385 81.64,71.385 85.061,71.385 Z" />
			</g>
			<g>
				<path style="fill:#b6b6b6;" d="M 82.63,69.675 C 88.21,69.675 92.71,65.175 92.71,59.595 92.71,54.285 88.66,49.965 83.53,49.605 82.989,40.695 75.519,33.675 66.519,33.675 61.929,33.675 57.79,35.475 54.73,38.355 53.2,33.315 48.609,29.715 43.119,29.715 39.519,29.715 36.369,31.245 34.119,33.675 33.039,32.955 31.78,32.505 30.43,32.505 27.1,32.505 24.31,35.115 24.04,38.445 19.27,38.535 15.4,42.404 15.4,47.265 15.4,47.445 15.4,47.535 15.4,47.715 12.88,48.525 11.17,50.865 11.17,53.655 11.17,53.835 11.17,53.925 11.17,54.105 8.29,55.365 6.22,58.245 6.22,61.575 6.22,66.075 9.82,69.675 14.32,69.675 18.82,69.675 79.39,69.675 82.63,69.675 Z" />
			</g>
			<g>
				<path style="fill:#c3c3c2;" d="M 78.85,51.225 C 78.761,51.225 78.67,51.316 78.58,51.316 74.439,51.045 71.65,52.036 69.4,55.095 71.29,56.716 72.639,58.875 73.179,61.305 73.45,62.385 71.289,64.906 70.929,63.375 70.389,61.125 69.129,59.145 67.329,57.705 67.238,57.615 67.149,57.524 67.149,57.435 67.059,57.435 66.968,57.435 66.878,57.344 62.018,53.565 52.479,52.394 49.508,59.414 49.328,59.864 48.608,61.034 47.978,60.943 44.828,60.314 41.228,60.494 40.328,64.273 40.058,65.443 37.718,67.154 38.168,64.994 39.338,59.864 43.298,57.074 48.428,57.704 52.478,50.864 61.387,49.424 67.868,53.924 70.388,50.235 73.448,48.254 78.038,48.074 76.328,41.595 70.388,36.824 63.278,36.824 59.228,36.824 55.448,38.445 52.748,41.054 52.748,40.964 52.658,40.874 52.658,40.784 52.568,41.144 52.387,41.504 52.118,41.774 50.138,43.754 49.148,46.004 48.698,48.704 48.698,49.514 47.528,51.404 46.718,50.504 42.938,46.364 34.298,48.704 32.138,53.474 31.508,54.914 29.348,55.544 30.248,53.474 32.858,47.714 41.588,42.674 47.348,46.814 48.248,44.114 49.688,41.864 51.759,39.704 51.848,39.614 52.029,39.524 52.118,39.434 50.318,35.834 46.628,33.404 42.398,33.404 39.158,33.404 36.278,34.754 34.298,37.004 33.398,36.374 32.228,35.924 30.968,35.924 27.998,35.924 25.478,38.264 25.298,41.235 20.978,41.324 17.558,44.835 17.558,49.154 17.558,49.244 17.558,49.424 17.558,49.514 15.308,50.234 13.778,52.304 13.778,54.824 13.778,55.004 13.778,55.094 13.778,55.273 11.168,56.354 9.367,58.964 9.367,61.934 9.367,65.984 12.607,69.223 16.658,69.223 20.708,69.223 74.887,69.223 77.858,69.223 82.808,69.223 86.858,65.173 86.858,60.223 86.86,55.545 83.35,51.675 78.85,51.225 Z" />
			</g>
		</g>
		<g>
			<g>
				<path style="stroke-linejoin:round;stroke:#94cde5;stroke-linecap:round;stroke-miterlimit:10.0;stroke-width:2.5;fill:#ffffff;" d="M 34.1,77.7 C 32.0,78.8 32.3,81.3 33.3,83.1 33.5,83.4 33.5,84.1 33.0,84.0 32.5,83.9 32.2,83.6 31.8,83.3 31.0,82.6 29.9,82.0 28.8,82.1 26.4,82.3 25.2,84.9 26.5,86.9 27.0,87.7 27.8,88.2 28.7,88.3 29.8,88.5 30.9,87.9 31.9,88.4 31.6,89.1 31.0,89.3 30.4,89.8 29.8,90.2 29.3,90.8 29.0,91.4 28.3,92.8 28.7,94.7 30.2,95.4 31.6,96.1 33.2,95.6 34.2,94.4 35.0,93.3 34.8,91.8 35.8,90.8 36.4,91.4 36.4,92.2 36.6,92.9 36.8,93.7 37.1,94.5 37.8,95.0 39.5,96.3 41.9,95.6 42.5,93.6 43.1,91.5 41.6,90.1 39.9,89.2 39.5,89.0 38.8,88.5 39.5,88.1 40.0,87.9 40.4,88.0 41.0,88.0 41.8,88.0 42.6,88.1 43.4,87.7 45.2,86.8 45.8,84.5 44.4,83.0 42.8,81.3 40.6,82.1 39.2,83.5 38.9,83.8 38.7,84.1 38.3,84.1 37.8,84.2 37.9,83.3 38.0,83.1 38.3,82.2 38.7,81.3 38.6,80.4 38.2,78.1 36.1,76.6 34.1,77.7 33.4,78.1 34.8,77.3 34.1,77.7 Z" />
			</g>
		</g>
		<g>
			<g>
				<path style="stroke-linejoin:round;stroke:#94cde5;stroke-linecap:round;stroke-miterlimit:10.0;stroke-width:2.5;fill:#ffffff;" d="M 62.1,77.7 C 60.0,78.8 60.3,81.3 61.3,83.1 61.5,83.4 61.5,84.1 61.0,84.0 60.5,83.9 60.2,83.6 59.8,83.3 59.0,82.6 57.9,82.0 56.8,82.1 54.4,82.3 53.2,84.9 54.5,86.9 55.0,87.7 55.8,88.2 56.7,88.3 57.8,88.5 58.9,87.9 59.9,88.4 59.6,89.1 59.0,89.3 58.4,89.8 57.8,90.2 57.3,90.8 57.0,91.4 56.3,92.8 56.7,94.7 58.2,95.4 59.6,96.1 61.2,95.6 62.2,94.4 63.0,93.3 62.8,91.8 63.8,90.8 64.4,91.4 64.4,92.2 64.6,92.9 64.8,93.7 65.1,94.5 65.8,95.0 67.5,96.3 69.9,95.6 70.5,93.6 71.1,91.5 69.6,90.1 67.9,89.2 67.5,89.0 66.8,88.5 67.5,88.1 68.0,87.9 68.4,88.0 69.0,88.0 69.8,88.0 70.6,88.1 71.4,87.7 73.2,86.8 73.8,84.5 72.4,83.0 70.8,81.3 68.6,82.1 67.2,83.5 66.9,83.8 66.7,84.1 66.3,84.1 65.8,84.2 65.9,83.3 66.0,83.1 66.3,82.2 66.7,81.3 66.6,80.4 66.2,78.1 64.1,76.6 62.1,77.7 61.4,78.1 62.8,77.3 62.1,77.7 Z" />
			</g>
		</g>
	</g>
</g>
</svg>