<?xml version="1.0" encoding="utf-8"?>
<!-- Created by sK1 2.0rc5 (https://sk1project.net/) -->
<svg xmlns="http://www.w3.org/2000/svg" height="100.0px" width="100.0px" version="1.1" xmlns:xlink="http://www.w3.org/1999/xlink" id="4a58e22e-6faf-11ea-bfe2-b42e99a10389">

<g>
	<g>
		<g>
			<g>
				<path style="fill:#c3c3c2;" d="M 82.63,69.675 C 88.21,69.675 92.71,65.175 92.71,59.595 92.71,54.285 88.66,49.965 83.53,49.605 82.989,40.695 75.519,33.675 66.519,33.675 61.929,33.675 57.79,35.475 54.73,38.355 53.2,33.315 48.609,29.715 43.119,29.715 39.519,29.715 36.369,31.245 34.119,33.675 33.039,32.955 31.78,32.505 30.43,32.505 27.1,32.505 24.31,35.115 24.04,38.445 19.27,38.535 15.4,42.404 15.4,47.265 15.4,47.445 15.4,47.535 15.4,47.715 12.88,48.525 11.17,50.865 11.17,53.655 11.17,53.835 11.17,53.925 11.17,54.105 8.29,55.365 6.22,58.245 6.22,61.575 6.22,66.075 9.82,69.675 14.32,69.675 18.82,69.675 79.39,69.675 82.63,69.675 Z" />
			</g>
		</g>
	</g>
</g>
</svg>