<?xml version="1.0" encoding="utf-8"?>
<!-- Created by sK1 2.0rc5 (https://sk1project.net/) -->
<svg xmlns="http://www.w3.org/2000/svg" height="100.0px" width="100.0px" version="1.1" xmlns:xlink="http://www.w3.org/1999/xlink" id="b7da3d9e-6fae-11ea-a9ce-b42e99a10389">

<g>
	<g>
		<path style="stroke-linejoin:round;stroke:#f4e501;stroke-width:3.0;stroke-miterlimit:4.0;fill:#fff88a;" d="M 50.5,24.4 C 36.0878,24.4 24.4,36.0878 24.4,50.5 24.4,64.9122 36.0878,76.6 50.5,76.6 64.9122,76.6 76.6,64.9122 76.6,50.5 76.6,36.0878 64.9122,24.4 50.5,24.4 Z" />
		<g>
			<g>
				<g>
					<path style="fill:#a0a1a0;" d="M 64.4647,69.5753 C 68.2087,69.5753 71.25,66.5333 71.25,62.7893 71.25,59.2214 68.5005,56.2964 65.049,56.0039 64.6395,49.9784 59.667,45.1814 53.5252,45.1814 50.424,45.1814 47.616,46.4099 45.5685,48.3404 44.5747,44.9474 41.4157,42.4904 37.6717,42.4904 35.2732,42.4904 33.1087,43.5434 31.5877,45.1814 30.8857,44.7134 30.0082,44.4209 29.1307,44.4209 26.8492,44.4209 24.9772,46.1759 24.8017,48.3989 21.5257,48.4574 18.9517,51.1484 18.9517,54.4244 18.9517,54.5414 18.9517,54.6006 18.9517,54.7169 17.2552,55.3019 16.0852,56.8821 16.0852,58.6949 16.0852,58.8126 16.0852,58.9289 16.0852,58.9874 14.0955,59.8636 12.75,61.7948 12.75,64.0763 12.75,67.1189 15.207,69.5752 18.249,69.5752 21.291,69.5753 62.241,69.5753 64.4647,69.5753 Z" />
				</g>
				<g>
					<path style="fill:#e9e9e9;" d="M 62.8845,68.4638 C 66.5115,68.4638 69.4365,65.5387 69.4365,61.9117 69.4365,58.4603 66.804,55.6523 63.4695,55.4183 63.1179,49.6268 58.2624,45.0637 52.4124,45.0637 49.4289,45.0637 46.7385,46.2338 44.7495,48.1058 43.755,44.8298 40.7709,42.4898 37.2023,42.4898 34.8623,42.4898 32.8148,43.4843 31.3524,45.0637 30.6504,44.5957 29.832,44.3032 28.9545,44.3032 26.79,44.3032 24.9765,45.9997 24.801,48.1642 21.7005,48.2227 19.185,50.7376 19.185,53.8972 19.185,54.0142 19.185,54.0727 19.185,54.1898 17.547,54.7163 16.4355,56.2372 16.4355,58.0508 16.4355,58.1677 16.4355,58.2263 16.4355,58.3432 14.5635,59.1623 13.218,61.0343 13.218,63.1987 13.218,66.1238 15.558,68.4638 18.483,68.4638 21.408,68.4638 60.7785,68.4638 62.8845,68.4638 Z" />
				</g>
				<g>
					<path style="fill:#f7f7f7;" d="M 60.4275,56.4713 C 60.3697,56.4713 60.3105,56.5304 60.252,56.5304 57.5603,56.3543 55.7475,56.9984 54.285,58.9868 55.5135,60.0404 56.3904,61.4438 56.7414,63.0233 56.9175,63.7253 55.5129,65.3639 55.2789,64.3688 54.9278,62.9063 54.1089,61.6193 52.9389,60.6833 52.8797,60.6247 52.8219,60.5656 52.8219,60.5078 52.7634,60.5078 52.7042,60.5078 52.6457,60.4486 49.4867,57.9922 43.2863,57.2311 41.3552,61.7941 41.2382,62.0866 40.7702,62.8471 40.3607,62.788 38.3132,62.3791 35.9732,62.4961 35.3882,64.9524 35.2127,65.713 33.6917,66.8251 33.9842,65.4211 34.7447,62.0866 37.3187,60.2731 40.6532,60.6826 43.2857,56.2366 49.0765,55.3006 53.2892,58.2256 54.9272,55.8278 56.9162,54.5401 59.8997,54.4231 58.7882,50.2117 54.9272,47.1106 50.3057,47.1106 47.6732,47.1106 45.2162,48.1643 43.4612,49.8601 43.4612,49.8016 43.4027,49.7431 43.4027,49.6846 43.3442,49.9186 43.2265,50.1526 43.0517,50.3281 41.7647,51.6151 41.1212,53.0776 40.8287,54.8326 40.8287,55.3591 40.0682,56.5876 39.5417,56.0026 37.0847,53.3116 31.4687,54.8326 30.0647,57.9331 29.6552,58.8691 28.2512,59.2786 28.8362,57.9331 30.5327,54.1891 36.2072,50.9131 39.9512,53.6041 40.5362,51.8491 41.4722,50.3866 42.8184,48.9826 42.8762,48.9241 42.9939,48.8656 43.0517,48.8071 41.8817,46.4671 39.4832,44.8876 36.7337,44.8876 34.6277,44.8876 32.7557,45.7651 31.4687,47.2276 30.8837,46.8181 30.1232,46.5256 29.3042,46.5256 27.3737,46.5256 25.7357,48.0466 25.6187,49.9778 22.8107,50.0356 20.5877,52.3177 20.5877,55.1251 20.5877,55.1836 20.5877,55.3006 20.5877,55.3591 19.1252,55.8271 18.1307,57.1726 18.1307,58.8106 18.1307,58.9276 18.1307,58.9861 18.1307,59.1024 16.4342,59.8051 15.2636,61.5016 15.2636,63.4321 15.2636,66.0646 17.3696,68.17 20.0027,68.17 22.6352,68.17 57.8516,68.17 59.7827,68.17 63.0002,68.17 65.6327,65.5374 65.6327,62.3199 65.634,59.2793 63.3525,56.7638 60.4275,56.4713 Z" />
				</g>
			</g>
		</g>
	</g>
</g>
</svg>